<?xml version="1.0" encoding="UTF-8" standalone="no"?>
<!-- Created with Inkscape (http://www.inkscape.org/) -->

<svg
   width="74.693001"
   height="128.00078"
   viewBox="0 0 21.163017 36.266887"
   version="1.1"
   id="svg1981"
   inkscape:version="1.1.2 (0a00cf5339, 2022-02-04)"
   sodipodi:docname="babylonian1.svg"
   xmlns:inkscape="http://www.inkscape.org/namespaces/inkscape"
   xmlns:sodipodi="http://sodipodi.sourceforge.net/DTD/sodipodi-0.dtd"
   xmlns:xlink="http://www.w3.org/1999/xlink"
   xmlns="http://www.w3.org/2000/svg"
   xmlns:svg="http://www.w3.org/2000/svg">
  <sodipodi:namedview
     id="namedview1983"
     pagecolor="#505050"
     bordercolor="#eeeeee"
     borderopacity="1"
     inkscape:pageshadow="0"
     inkscape:pageopacity="0"
     inkscape:pagecheckerboard="0"
     inkscape:document-units="in"
     showgrid="false"
     units="px"
     fit-margin-top="0"
     fit-margin-left="0"
     fit-margin-right="0"
     fit-margin-bottom="0"
     scale-x="27.2"
     inkscape:zoom="4.99"
     inkscape:cx="24.549098"
     inkscape:cy="57.014028"
     inkscape:window-width="1850"
     inkscape:window-height="1016"
     inkscape:window-x="70"
     inkscape:window-y="27"
     inkscape:window-maximized="1"
     inkscape:current-layer="layer2" />
  <defs
     id="defs1978" />
  <g
     inkscape:label="Layer 1"
     inkscape:groupmode="layer"
     id="layer1"
     style="display:none"
     transform="translate(-115.35256,-7.146858)">
    <image
       width="1.6933334"
       height="2.1166666"
       preserveAspectRatio="none"
       style="image-rendering:optimizeQuality"
       id="image2086"
       x="125.38754"
       y="25.439808" />
    <g
       id="g5730">
      <path
         style="fill:#d4d4d4;fill-opacity:1;stroke-width:0.0846667"
         d="m 125.72621,27.229528 c 0,-0.09352 0.0392,-0.273089 0.0871,-0.399049 0.0693,-0.182331 0.0578,-0.261307 -0.0563,-0.387399 -0.39832,-0.440138 -0.19528,-0.878265 0.39252,-0.847003 0.60853,0.03236 0.73249,0.096 0.6328,0.324873 -0.0369,0.08462 -0.06,0.185265 -0.0515,0.223651 0.009,0.03839 -0.018,0.04909 -0.0589,0.02378 -0.13178,-0.08144 -0.41676,0.317555 -0.53742,0.752448 -0.12176,0.438837 -0.40831,0.655483 -0.40831,0.308703 z"
         id="path5750" />
      <path
         style="fill:#c2c2c2;fill-opacity:1;stroke-width:0.0846667"
         d="m 125.77201,27.308081 c -0.0299,-0.0484 -0.0153,-0.22946 0.0324,-0.402357 0.07,-0.253556 0.0613,-0.342575 -0.0452,-0.460233 -0.18329,-0.202537 -0.26377,-0.833722 -0.10764,-0.844201 1.09656,-0.0736 1.40667,0.127347 0.88466,0.573242 -0.21198,0.181068 -0.32188,0.371494 -0.40599,0.703492 -0.11252,0.444116 -0.24858,0.607463 -0.35822,0.430057 z m 0.4622,-1.275606 c 0.21166,-0.165568 0.21166,-0.165568 -0.0635,-0.167451 -0.21935,-0.0015 -0.27517,0.03247 -0.27517,0.167451 0,0.210646 0.0694,0.210646 0.33867,0 z"
         id="path5748" />
      <path
         style="fill:#b0b0b0;fill-opacity:1;stroke-width:0.0846667"
         d="m 125.77201,27.308081 c -0.0299,-0.0484 -0.0153,-0.22946 0.0324,-0.402357 0.07,-0.253556 0.0613,-0.342575 -0.0452,-0.460233 -0.39104,-0.432101 -0.25203,-0.83635 0.2876,-0.83635 0.85448,0 0.99982,0.16244 0.49194,0.54982 -0.22401,0.17086 -0.31403,0.325873 -0.40449,0.696528 -0.11274,0.461927 -0.25028,0.633763 -0.36224,0.452592 z m 0.47398,-1.27279 c 0.19988,-0.166516 0.19988,-0.166516 -0.0753,-0.169333 -0.21966,-0.0022 -0.27517,0.03134 -0.27517,0.166517 0,0.213486 0.0966,0.214263 0.35045,0.0028 z"
         id="path5746" />
      <path
         style="fill:#9e9e9e;fill-opacity:1;stroke-width:0.0846667"
         d="m 125.7815,27.323437 c -0.0247,-0.03995 -0.0132,-0.213286 0.0256,-0.385183 0.0545,-0.241759 0.0342,-0.383769 -0.0899,-0.627062 -0.29647,-0.581507 -0.23797,-0.702051 0.34072,-0.702051 0.84119,0 0.98164,0.15632 0.48251,0.537026 -0.22322,0.170263 -0.31246,0.325192 -0.40449,0.702269 -0.11069,0.453534 -0.2513,0.641946 -0.35447,0.475001 z m 0.46449,-1.288146 c 0.19988,-0.166516 0.19988,-0.166516 -0.0753,-0.169333 -0.21966,-0.0022 -0.27517,0.03134 -0.27517,0.166517 0,0.213486 0.0966,0.214263 0.35045,0.0028 z"
         id="path5744" />
      <path
         style="fill:#8c8c8c;fill-opacity:1;stroke-width:0.0846667"
         d="m 125.84207,26.923376 c 0.0319,-0.271574 0.0219,-0.467568 -0.0239,-0.467568 -0.10746,0 -0.28818,-0.569839 -0.22935,-0.723158 0.0335,-0.08733 0.18256,-0.123509 0.50879,-0.123509 0.82545,0 0.90545,0.117345 0.39887,0.585018 -0.26004,0.240068 -0.34302,0.38931 -0.38976,0.700964 -0.0925,0.616591 -0.33688,0.642682 -0.26466,0.02825 z m 0.44288,-1.045086 c -0.31222,-0.06361 -0.45602,0.01905 -0.38108,0.219056 0.0719,0.191871 0.0719,0.191871 0.29321,0 0.17382,-0.1507 0.19268,-0.197705 0.0879,-0.219056 z"
         id="path5742" />
      <path
         style="fill:#7a7a7a;fill-opacity:1;stroke-width:0.0846667"
         d="m 125.84522,26.879141 c 0.0335,-0.252188 0.0234,-0.423333 -0.0249,-0.423333 -0.1091,0 -0.29101,-0.568165 -0.23153,-0.723158 0.0654,-0.170396 0.89449,-0.167732 1.11603,0.0036 0.15882,0.122824 0.15368,0.135902 -0.15318,0.389235 -0.2334,0.192685 -0.35277,0.383342 -0.45051,0.719572 -0.17109,0.588516 -0.33235,0.61 -0.25595,0.0341 z m 0.30411,-1.000804 c -0.33585,-0.03375 -0.37822,0.0063 -0.25341,0.239512 0.0988,0.184543 0.0988,0.184543 0.31112,-0.01392 0.21236,-0.198458 0.21236,-0.198458 -0.0577,-0.225596 z"
         id="path5740" />
      <path
         style="fill:#686868;fill-opacity:1;stroke-width:0.0846667"
         d="m 125.85321,26.879141 c 0.0381,-0.277347 0.0274,-0.423333 -0.0311,-0.423333 -0.10708,0 -0.29454,-0.646049 -0.22167,-0.763954 0.079,-0.127843 0.91832,-0.09875 1.10445,0.03829 0.15761,0.116041 0.1496,0.133655 -0.19549,0.429931 -0.1979,0.169913 -0.36004,0.353589 -0.3603,0.408169 -2.6e-4,0.05458 -0.0401,0.242111 -0.0887,0.416736 -0.13227,0.476295 -0.2771,0.402324 -0.20721,-0.105834 z m 0.29612,-1.000804 c -0.33585,-0.03375 -0.37822,0.0063 -0.25341,0.239512 0.0988,0.184543 0.0988,0.184543 0.31112,-0.01392 0.21236,-0.198458 0.21236,-0.198458 -0.0577,-0.225596 z"
         id="path5738" />
      <path
         style="fill:#575757;fill-opacity:1;stroke-width:0.0846667"
         d="m 125.85321,26.879141 c 0.0379,-0.275483 0.0273,-0.423333 -0.0304,-0.423333 -0.11352,0 -0.27153,-0.564222 -0.2059,-0.735246 0.0393,-0.102433 0.15503,-0.122342 0.54651,-0.09402 0.693,0.05013 0.75291,0.147016 0.33182,0.536626 -0.19013,0.175915 -0.3459,0.361349 -0.34616,0.412078 -2.6e-4,0.05073 -0.0401,0.235108 -0.0887,0.409733 -0.13227,0.476295 -0.2771,0.402324 -0.20721,-0.105834 z m 0.35983,-0.757221 c 0.25971,-0.216658 0.24101,-0.258779 -0.11489,-0.258779 -0.24369,0 -0.29501,0.02706 -0.254,0.133925 0.0283,0.07366 0.0514,0.168909 0.0514,0.211667 0,0.118162 0.1068,0.08896 0.3175,-0.08681 z"
         id="path5736" />
      <path
         style="fill:#454545;fill-opacity:1;stroke-width:0.0846667"
         d="m 125.8612,26.879141 c 0.0352,-0.264964 0.0243,-0.423333 -0.0291,-0.423333 -0.0979,0 -0.26428,-0.583119 -0.21156,-0.741283 0.0631,-0.189363 1.12169,-0.09475 1.12169,0.100258 0,0.05489 -0.13159,0.227349 -0.29242,0.383233 -0.16084,0.155884 -0.31608,0.401483 -0.34499,0.545776 -0.14117,0.704539 -0.33327,0.811273 -0.2436,0.135349 z m 0.35184,-0.757221 c 0.25853,-0.21567 0.24089,-0.258779 -0.10583,-0.258779 -0.29936,0 -0.33833,0.04605 -0.24494,0.289409 0.0652,0.169859 0.11573,0.165444 0.35077,-0.03063 z"
         id="path5734" />
      <path
         style="fill:#333333;fill-opacity:1;stroke-width:0.0846667"
         d="m 125.85678,26.927134 c 0.0417,-0.278333 0.0212,-0.425438 -0.0795,-0.569172 -0.2912,-0.415749 -0.18476,-0.753578 0.22407,-0.711186 0.19791,0.02052 0.44556,0.0395 0.55034,0.04217 0.26808,0.0068 0.2384,0.218372 -0.0618,0.440299 -0.23661,0.174937 -0.33742,0.380391 -0.46141,0.940394 -0.0876,0.395476 -0.23418,0.273819 -0.17175,-0.142507 z m 0.41976,-0.85495 c 0.254,-0.208202 0.254,-0.208202 -0.10583,-0.208622 -0.36078,-4.22e-4 -0.40397,0.04005 -0.30844,0.288988 0.0675,0.175817 0.11236,0.167108 0.41427,-0.08037 z"
         id="path5732" />
      <path
         style="fill:#333333;fill-opacity:1;stroke-width:0.0846667"
         d="m 125.85678,26.927134 c 0.0417,-0.278333 0.0212,-0.425438 -0.0795,-0.569172 -0.2912,-0.415749 -0.18476,-0.753578 0.22407,-0.711186 0.19791,0.02052 0.44556,0.0395 0.55034,0.04217 0.26808,0.0068 0.2384,0.218372 -0.0618,0.440299 -0.23661,0.174937 -0.33742,0.380391 -0.46141,0.940394 -0.0876,0.395476 -0.23418,0.273819 -0.17175,-0.142507 z m 0.41976,-0.85495 c 0.254,-0.208202 0.254,-0.208202 -0.10583,-0.208622 -0.36078,-4.22e-4 -0.40397,0.04005 -0.30844,0.288988 0.0675,0.175817 0.11236,0.167108 0.41427,-0.08037 z"
         id="path6189" />
    </g>
  </g>
  <g
     inkscape:groupmode="layer"
     id="layer2"
     inkscape:label="Layer 2"
     transform="translate(-115.35256,-7.146858)">
    <path
       style="display:inline;fill:#000000;fill-opacity:1;stroke-width:1.84132"
       d="m 119.76613,35.070831 c 0.85687,-4.156376 1.92903,-7.469263 -1.72895,-12.378244 -4.25757,-9.119226 -4.01812,-16.3886712 4.87303,-15.4667381 4.30411,0.4462651 6.48498,-0.1609337 11.96869,0.9171052 3.10494,2.1375919 1.41796,4.8363869 -1.93773,9.7706819 -3.59969,5.290981 -6.74377,8.077528 -9.44029,20.256367 -1.9051,8.600737 -5.09246,5.955007 -3.73475,-3.099172 z m 9.12886,-18.59329 c 2.17587,-3.478823 3.16235,-4.764227 -2.30157,-4.537071 -8.5782,-0.171808 -9.35851,-0.796405 -6.70789,6.284856 3.75954,7.676955 3.12059,7.666951 7.67176,0.391025 z"
       id="path6189-2"
       sodipodi:nodetypes="ccscsccscscs" />
  </g>
</svg>
