<?xml version="1.0" encoding="UTF-8" standalone="no"?>
<!-- Created with Inkscape (http://www.inkscape.org/) -->

<svg
   version="1.1"
   id="svg90391"
   width="113.64661"
   height="127.99999"
   viewBox="0 0 113.64662 127.99999"
   sodipodi:docname="egyptian10.svg"
   inkscape:version="1.1.2 (0a00cf5339, 2022-02-04)"
   xmlns:inkscape="http://www.inkscape.org/namespaces/inkscape"
   xmlns:sodipodi="http://sodipodi.sourceforge.net/DTD/sodipodi-0.dtd"
   xmlns="http://www.w3.org/2000/svg"
   xmlns:svg="http://www.w3.org/2000/svg">
  <defs
     id="defs90395" />
  <sodipodi:namedview
     id="namedview90393"
     pagecolor="#505050"
     bordercolor="#eeeeee"
     borderopacity="1"
     inkscape:pageshadow="0"
     inkscape:pageopacity="0"
     inkscape:pagecheckerboard="0"
     showgrid="false"
     fit-margin-top="0"
     fit-margin-left="0"
     fit-margin-right="0"
     fit-margin-bottom="0"
     inkscape:zoom="2.7804383"
     inkscape:cx="34.167275"
     inkscape:cy="78.584732"
     inkscape:window-width="1850"
     inkscape:window-height="1016"
     inkscape:window-x="70"
     inkscape:window-y="27"
     inkscape:window-maximized="1"
     inkscape:current-layer="g90397" />
  <g
     inkscape:groupmode="layer"
     inkscape:label="Image"
     id="g90397"
     transform="translate(-66.136906,-36.534804)">
    <path
       style="fill:#000000;stroke-width:0.865825"
       d="m 66.442491,119.72834 0.305588,-44.806462 2.224051,-5.782596 c 5.987733,-15.568281 17.895209,-26.018796 34.95223,-30.675592 7.87606,-2.150268 26.36511,-2.605154 34.29622,-0.84379 19.97259,4.435574 32.71276,14.810372 38.89553,31.674113 2.0582,5.61383 2.06411,5.739605 2.36538,50.434327 l 0.30203,44.80646 h -5.64072 -5.64072 l -0.25331,-44.37355 C 167.99641,75.958037 167.98768,75.768478 165.97392,70.779268 161.91421,60.72108 151.27348,52.08696 138.89254,48.804845 c -6.68517,-1.772197 -23.26746,-2.022992 -30.1232,-0.455591 -10.872245,2.485682 -20.630792,9.024364 -26.033398,17.443594 -4.821634,7.513864 -5.187543,11.549588 -5.204215,57.398792 l -0.01503,41.34316 h -5.689895 -5.689896 z"
       id="path91594" />
  </g>
</svg>
