<?xml version="1.0" encoding="UTF-8" standalone="no"?>
<!-- Created with Inkscape (http://www.inkscape.org/) -->

<svg
   version="1.1"
   id="svg90391"
   width="42.510567"
   height="128"
   viewBox="0 0 42.510568 128"
   sodipodi:docname="egyptian1000.svg"
   inkscape:version="1.1.2 (0a00cf5339, 2022-02-04)"
   xmlns:inkscape="http://www.inkscape.org/namespaces/inkscape"
   xmlns:sodipodi="http://sodipodi.sourceforge.net/DTD/sodipodi-0.dtd"
   xmlns="http://www.w3.org/2000/svg"
   xmlns:svg="http://www.w3.org/2000/svg">
  <defs
     id="defs90395" />
  <sodipodi:namedview
     id="namedview90393"
     pagecolor="#505050"
     bordercolor="#eeeeee"
     borderopacity="1"
     inkscape:pageshadow="0"
     inkscape:pageopacity="0"
     inkscape:pagecheckerboard="0"
     showgrid="false"
     fit-margin-top="0"
     fit-margin-left="0"
     fit-margin-right="0"
     fit-margin-bottom="0"
     inkscape:zoom="2.7804383"
     inkscape:cx="23.737265"
     inkscape:cy="75.347832"
     inkscape:window-width="1850"
     inkscape:window-height="1016"
     inkscape:window-x="70"
     inkscape:window-y="27"
     inkscape:window-maximized="1"
     inkscape:current-layer="g90397" />
  <g
     inkscape:groupmode="layer"
     inkscape:label="Image"
     id="g90397"
     transform="translate(-76.508313,-39.737472)">
    <path
       style="fill:#000000;stroke-width:0.583262"
       d="m 85.106471,164.67535 c 0.825494,-6.85012 3.234654,-11.37957 7.585498,-14.26145 l 2.709058,-1.7944 -6.563817,-6.15405 -6.563817,-6.15404 1.895737,-1.91955 1.895738,-1.91956 5.832479,5.8106 5.832479,5.81059 V 106.93262 69.771747 l -1.312339,-0.2709 C 95.695701,69.351853 93.803124,69.060009 92.21176,68.852306 88.491055,68.366684 83.361467,66.47899 81.020762,64.734008 76.641788,61.469509 75.156997,53.541292 77.873623,47.929491 c 2.223186,-4.592489 6.492158,-6.81069 15.311413,-7.955966 7.258294,-0.942567 15.505294,0.977925 21.643864,5.040239 l 2.23061,1.476142 -4.75246,3.864879 c -4.56289,3.710707 -4.70698,3.901244 -3.61213,4.776484 6.95679,5.561386 8.28254,6.642908 8.28254,6.756727 0,0.382634 -9.35732,6.189267 -11.22779,6.96734 l -2.18723,0.909841 v 37.164163 37.16415 l 5.83248,-5.81059 5.83248,-5.8106 1.89574,1.93265 1.89574,1.93264 -6.27285,5.93031 c -3.45007,3.26167 -6.2716,6.08267 -6.27006,6.26888 0.002,0.18621 1.18128,1.18491 2.62168,2.21932 1.44039,1.03441 3.31838,3.07433 4.1733,4.53315 1.58796,2.70965 3.09779,7.96729 3.11414,10.84425 l 0.009,1.60397 H 100.56583 84.737462 Z m 25.125649,-4.2574 c -1.69371,-5.62777 -5.47912,-8.27892 -10.779986,-7.54987 -4.760336,0.65471 -7.326228,3.18997 -8.998394,8.89096 l -0.384924,1.31234 h 10.480934 10.48093 z m -5.19334,-98.085332 c 1.11278,-0.530647 2.02323,-1.16296 2.02323,-1.40514 0,-0.24218 -1.96851,-1.801156 -4.37446,-3.464391 -2.40595,-1.663234 -4.374463,-3.117933 -4.374463,-3.232663 0,-0.11473 2.129763,-1.634489 4.732813,-3.377242 l 4.73281,-3.168641 -1.67069,-0.863049 c -4.31028,-2.226616 -15.228414,-1.448253 -19.862948,1.416047 -5.133366,3.172595 -4.727727,10.261273 0.770956,13.472676 3.843409,2.244672 13.893032,2.591729 18.022752,0.622403 z"
       id="path91361" />
  </g>
</svg>
