<?xml version="1.0" encoding="UTF-8" standalone="no"?>
<!-- Created with Inkscape (http://www.inkscape.org/) -->

<svg
   version="1.1"
   id="svg90391"
   width="33.833572"
   height="128"
   viewBox="0 0 33.833576 128"
   sodipodi:docname="egyptian100002.svg"
   inkscape:version="1.1.2 (0a00cf5339, 2022-02-04)"
   xmlns:inkscape="http://www.inkscape.org/namespaces/inkscape"
   xmlns:sodipodi="http://sodipodi.sourceforge.net/DTD/sodipodi-0.dtd"
   xmlns="http://www.w3.org/2000/svg"
   xmlns:svg="http://www.w3.org/2000/svg">
  <defs
     id="defs90395" />
  <sodipodi:namedview
     id="namedview90393"
     pagecolor="#505050"
     bordercolor="#eeeeee"
     borderopacity="1"
     inkscape:pageshadow="0"
     inkscape:pageopacity="0"
     inkscape:pagecheckerboard="0"
     showgrid="false"
     fit-margin-top="0"
     fit-margin-left="0"
     fit-margin-right="0"
     fit-margin-bottom="0"
     inkscape:zoom="2.7804383"
     inkscape:cx="29.851409"
     inkscape:cy="65.277478"
     inkscape:window-width="1850"
     inkscape:window-height="1016"
     inkscape:window-x="70"
     inkscape:window-y="27"
     inkscape:window-maximized="1"
     inkscape:current-layer="g90397"
     height="128px" />
  <g
     inkscape:groupmode="layer"
     inkscape:label="Image"
     id="g90397"
     transform="translate(-70.495259,-49.814101)">
    <path
       style="fill:#000000;stroke-width:0.585515"
       d="M 86.177858,132.82301 V 87.831913 l -4.780079,-5.216838 c -5.91829,-6.45905 -8.705349,-10.690153 -10.120556,-15.364263 -0.945205,-3.121799 -0.99393,-3.949897 -0.358959,-6.100587 1.547701,-5.24217 5.326937,-9.137313 10.116818,-10.427094 1.258644,-0.338918 2.614863,-0.741473 3.013821,-0.894568 0.441487,-0.169414 1.396039,1.160911 2.438998,3.399143 3.524033,7.562715 9.659255,16.224943 15.440999,21.800918 l 2.39993,2.314511 v 50.235485 50.23548 h -9.075486 -9.075486 z m 14.052362,-5.90124 V 80.713554 l -5.05061,-5.902646 c -2.777836,-3.246454 -5.177127,-5.902644 -5.331756,-5.902644 -0.15463,0 -1.320858,0.823467 -2.591617,1.829927 l -2.310471,1.829926 -1.461979,-1.373458 c -2.009917,-1.888218 -5.399063,-7.093137 -6.348433,-9.749674 -0.800809,-2.240834 -1.039622,-2.082605 -1.749274,1.159007 -0.450077,2.055905 1.335702,7.163908 3.712012,10.617755 1.003971,1.459223 3.929821,4.743461 6.501888,7.298307 l 4.676485,4.645174 v 43.982372 43.98238 h 4.976879 4.976876 z m -13.419648,-60.861564 1.34796,-1.091512 -1.80165,-2.860716 C 85.365974,60.534584 84.242256,58.262451 83.85973,57.058794 l -0.695502,-2.188468 -1.713519,0.886095 c -0.942435,0.487352 -1.713518,1.120966 -1.713518,1.408032 0,1.689613 4.36392,9.987265 5.252526,9.987265 0.260092,0 1.079477,-0.491181 1.820855,-1.091512 z"
       id="path91827" />
  </g>
</svg>
