<?xml version="1.0" encoding="UTF-8" standalone="no"?>
<!-- Created with Inkscape (http://www.inkscape.org/) -->

<svg
   version="1.1"
   id="svg90391"
   width="58.061653"
   height="128"
   viewBox="0 0 58.061655 128"
   sodipodi:docname="egyptian100_2.svg"
   inkscape:version="1.1.2 (0a00cf5339, 2022-02-04)"
   xmlns:inkscape="http://www.inkscape.org/namespaces/inkscape"
   xmlns:sodipodi="http://sodipodi.sourceforge.net/DTD/sodipodi-0.dtd"
   xmlns="http://www.w3.org/2000/svg"
   xmlns:svg="http://www.w3.org/2000/svg">
  <defs
     id="defs90395" />
  <sodipodi:namedview
     id="namedview90393"
     pagecolor="#505050"
     bordercolor="#eeeeee"
     borderopacity="1"
     inkscape:pageshadow="0"
     inkscape:pageopacity="0"
     inkscape:pagecheckerboard="0"
     showgrid="false"
     fit-margin-top="0"
     fit-margin-left="0"
     fit-margin-right="0"
     fit-margin-bottom="0"
     inkscape:zoom="2.7804383"
     inkscape:cx="32.009342"
     inkscape:cy="62.759889"
     inkscape:window-width="1850"
     inkscape:window-height="1016"
     inkscape:window-x="70"
     inkscape:window-y="27"
     inkscape:window-maximized="1"
     inkscape:current-layer="g90397" />
  <g
     inkscape:groupmode="layer"
     inkscape:label="Image"
     id="g90397"
     transform="translate(-68.220236,-52.402022)">
    <path
       style="fill:#000000;stroke-width:0.743487"
       d="m 112.85603,179.84441 c -0.17253,-0.30669 -0.90987,-3.06689 -1.63854,-6.13377 -2.12468,-8.94263 -7.3727,-18.29053 -20.422783,-36.37759 C 74.906847,115.3129 70.527774,106.37005 68.55536,91.916288 66.750268,78.688654 72.41892,63.196008 81.186981,57.39358 c 10.208578,-6.755717 25.603959,-6.639892 34.852259,0.262207 8.70613,6.497467 11.44613,14.302576 9.78032,27.85999 -0.91955,7.483753 -2.7334,11.280122 -7.40673,15.502203 -3.96007,3.57768 -11.35874,5.35813 -16.85879,4.05699 -5.050003,-1.19469 -8.866984,-3.7155 -11.566039,-7.638439 C 85.07189,90.291207 84.679543,83.612274 88.75151,76.387725 l 2.263138,-4.015294 2.447492,4.758781 c 1.648974,3.206182 2.462838,5.850346 2.494527,8.104473 0.06198,4.4086 1.335823,6.777898 4.496373,8.363074 3.90548,1.958788 8.32185,1.702421 11.11162,-0.645021 3.73684,-3.144344 4.78675,-5.878857 4.81877,-12.550718 0.0225,-4.696117 -0.30663,-6.573786 -1.5641,-8.921845 -3.26806,-6.102452 -7.77575,-8.5501 -15.746245,-8.5501 -10.909289,0 -16.82604,4.331556 -19.803743,14.497997 -1.930227,6.590156 -1.145181,17.013518 1.849095,24.551168 4.063544,10.22938 6.740403,14.61717 18.103054,29.67373 14.962229,19.82635 20.650109,31.12955 23.127469,45.95998 l 0.46573,2.78807 h -4.82248 c -2.65236,0 -4.96364,-0.25093 -5.13618,-0.55761 z"
       id="path90849" />
  </g>
</svg>
