<?xml version="1.0" encoding="UTF-8" standalone="no"?>
<!-- Created with Inkscape (http://www.inkscape.org/) -->

<svg
   version="1.1"
   id="svg90391"
   width="113.98817"
   height="128"
   viewBox="0 0 113.98817 128"
   sodipodi:docname="greek5000.svg"
   inkscape:version="1.1.2 (0a00cf5339, 2022-02-04)"
   xmlns:inkscape="http://www.inkscape.org/namespaces/inkscape"
   xmlns:sodipodi="http://sodipodi.sourceforge.net/DTD/sodipodi-0.dtd"
   xmlns="http://www.w3.org/2000/svg"
   xmlns:svg="http://www.w3.org/2000/svg">
  <defs
     id="defs90395" />
  <sodipodi:namedview
     id="namedview90393"
     pagecolor="#505050"
     bordercolor="#eeeeee"
     borderopacity="1"
     inkscape:pageshadow="0"
     inkscape:pageopacity="0"
     inkscape:pagecheckerboard="0"
     showgrid="false"
     fit-margin-top="0"
     fit-margin-left="0"
     fit-margin-right="0"
     fit-margin-bottom="0"
     inkscape:zoom="2.7804383"
     inkscape:cx="84.159393"
     inkscape:cy="103.76062"
     inkscape:window-width="1850"
     inkscape:window-height="1016"
     inkscape:window-x="70"
     inkscape:window-y="27"
     inkscape:window-maximized="1"
     inkscape:current-layer="g90397"
     height="128px" />
  <g
     inkscape:groupmode="layer"
     inkscape:label="Image"
     id="g90397"
     transform="translate(112.02009,182.64348)">
    <g
       aria-label="𐅆"
       id="text132830"
       style="font-size:40px;line-height:1.25"
       transform="matrix(4.7337278,0,0,4.7337278,205.45212,442.98246)">
      <path
         d="m -48.346004,-128.48348 h -4.72 v 0.6 c 1.04,0.04 1.28,0.08 1.28,0.52 0,0.28 -0.16,0.6 -0.64,1.2 l -2.04,2.52 -0.84,-1.2 c -1.24,-1.72 -1.32,-1.84 -1.32,-2.48 0,-0.28 0.12,-0.52 0.76,-0.52 l 0.56,-0.04 v -0.6 h -6.64 v 0.6 c 1.28,0.04 1.64,0.52 3.16,2.6 l 2.56,3.56 -3,3.68 c -1.76,2.16 -1.8,2.08 -2.8,2.16 v 0.6 h 4.64 v -0.6 c -1.16,-0.08 -1.32,-0.24 -1.32,-0.68 0,-0.32 0.08,-0.48 0.8,-1.44 l 2.32,-2.88 1.88,2.8 c 0.68,1 0.72,0.96 0.72,1.28 0,0.32 -0.12,0.88 -0.76,0.88 -0.08,0 -0.32,0 -0.56,0.04 v 0.6 h 6.36 v -0.6 c -1.04,-0.12 -1.4,-0.48 -2.2,-1.6 l -3.76,-5.36 2.68,-3.28 c 1.28,-1.6 1.6,-1.68 2.88,-1.76 z m 5.36,12.08 v -14.16 c 0,-1.28 -0.16,-1.6 -1.52,-1.6 h -21.04 c -1.36,0 -1.52,0.32 -1.52,1.6 v 23.84 c 0,1.28 0.16,1.6 1.52,1.6 h 1 c 1.36,0 1.52,-0.32 1.52,-1.6 v -22.44 c 0,-1.12 0.24,-1.36 1.32,-1.36 h 13.36 c 1.08,0 1.32,0.24 1.32,1.36 v 12.76 c 0,1.28 0.16,1.6 1.52,1.6 h 1 c 1.36,0 1.52,-0.32 1.52,-1.6 z"
         id="path134426" />
    </g>
  </g>
</svg>
