<?xml version="1.0" encoding="UTF-8" standalone="no"?>
<!-- Created with Inkscape (http://www.inkscape.org/) -->

<svg
   version="1.1"
   id="svg90391"
   width="113.98817"
   height="128"
   viewBox="0 0 113.98817 128"
   sodipodi:docname="greek50.svg"
   inkscape:version="1.1.2 (0a00cf5339, 2022-02-04)"
   xmlns:inkscape="http://www.inkscape.org/namespaces/inkscape"
   xmlns:sodipodi="http://sodipodi.sourceforge.net/DTD/sodipodi-0.dtd"
   xmlns="http://www.w3.org/2000/svg"
   xmlns:svg="http://www.w3.org/2000/svg">
  <defs
     id="defs90395" />
  <sodipodi:namedview
     id="namedview90393"
     pagecolor="#505050"
     bordercolor="#eeeeee"
     borderopacity="1"
     inkscape:pageshadow="0"
     inkscape:pageopacity="0"
     inkscape:pagecheckerboard="0"
     showgrid="false"
     fit-margin-top="0"
     fit-margin-left="0"
     fit-margin-right="0"
     fit-margin-bottom="0"
     inkscape:zoom="2.7804383"
     inkscape:cx="100.34389"
     inkscape:cy="61.680922"
     inkscape:window-width="1850"
     inkscape:window-height="1016"
     inkscape:window-x="70"
     inkscape:window-y="27"
     inkscape:window-maximized="1"
     inkscape:current-layer="g90397"
     height="128px" />
  <g
     inkscape:groupmode="layer"
     inkscape:label="Image"
     id="g90397"
     transform="translate(-0.16631603,88.823076)">
    <g
       aria-label="	𐅄"
       id="text113859"
       style="font-size:40px;line-height:1.25"
       transform="matrix(4.7337278,0,0,4.7337278,-213.42139,92.682609)">
      <path
         d="m 69.200403,-22.583076 v -14.16 c 0,-1.28 -0.16,-1.6 -1.52,-1.6 h -21.04 c -1.36,0 -1.52,0.32 -1.52,1.6 v 23.84 c 0,1.28 0.16,1.6 1.52,1.6 h 1 c 1.36,0 1.52,-0.32 1.52,-1.6 v -22.44 c 0,-1.12 0.24,-1.36 1.32,-1.36 h 13.36 c 1.08,0 1.32,0.24 1.32,1.36 v 12.76 c 0,1.28 0.16,1.6 1.52,1.6 h 1 c 1.36,0 1.52,-0.32 1.52,-1.6 z m -5.52,1.12 -6.24,-13.52 h -0.16 l -6.24,13.52 z m -3.6,-1.2 h -7.4 l 3.64,-8.04 z"
         id="path117625" />
    </g>
  </g>
</svg>
