<?xml version="1.0" encoding="UTF-8" standalone="no"?>
<!-- Created with Inkscape (http://www.inkscape.org/) -->

<svg
   version="1.1"
   id="svg90391"
   width="113.98817"
   height="128"
   viewBox="0 0 113.98817 128"
   sodipodi:docname="greek50000.svg"
   inkscape:version="1.1.2 (0a00cf5339, 2022-02-04)"
   xmlns:inkscape="http://www.inkscape.org/namespaces/inkscape"
   xmlns:sodipodi="http://sodipodi.sourceforge.net/DTD/sodipodi-0.dtd"
   xmlns="http://www.w3.org/2000/svg"
   xmlns:svg="http://www.w3.org/2000/svg">
  <defs
     id="defs90395" />
  <sodipodi:namedview
     id="namedview90393"
     pagecolor="#505050"
     bordercolor="#eeeeee"
     borderopacity="1"
     inkscape:pageshadow="0"
     inkscape:pageopacity="0"
     inkscape:pagecheckerboard="0"
     showgrid="false"
     fit-margin-top="0"
     fit-margin-left="0"
     fit-margin-right="0"
     fit-margin-bottom="0"
     inkscape:zoom="2.7804383"
     inkscape:cx="116.16873"
     inkscape:cy="125.33995"
     inkscape:window-width="1850"
     inkscape:window-height="1016"
     inkscape:window-x="70"
     inkscape:window-y="27"
     inkscape:window-maximized="1"
     inkscape:current-layer="g90397"
     height="128px" />
  <g
     inkscape:groupmode="layer"
     inkscape:label="Image"
     id="g90397"
     transform="translate(144.09381,203.97013)">
    <g
       aria-label="𐅇"
       id="text140922"
       style="font-size:40px;line-height:1.25"
       transform="matrix(4.7337278,0,0,4.7337278,325.20667,522.61037)">
      <path
         d="m -84.619727,-148.65013 v 9.32 c 0,1.68 -0.2,1.92 -1.44,2.04 v 0.6 h 5.72 v -0.6 c -1.2,-0.12 -1.4,-0.36 -1.4,-1.8 v -8.4 c 0,-1.44 0.2,-1.68 1.4,-1.8 v -0.6 h -4.44 l -2.4,6 -3.16,-6 h -3.6 v 0.6 c 1.32,0.12 1.52,0.36 1.52,1.8 v 7.64 c 0,2.04 -0.24,2.44 -1.56,2.56 v 0.6 h 3.76 v -0.6 c -1.24,-0.08 -1.48,-0.52 -1.48,-2.56 v -7.56 l 3.48,7 h 0.24 z m 9.56,10.92 v -14.16 c 0,-1.28 -0.16,-1.6 -1.52,-1.6 h -21.04 c -1.36,0 -1.52,0.32 -1.52,1.6 v 23.84 c 0,1.28 0.16,1.6 1.52,1.6 h 1 c 1.36,0 1.52,-0.32 1.52,-1.6 v -22.44 c 0,-1.12 0.24,-1.36 1.32,-1.36 h 13.36 c 1.08,0 1.32,0.24 1.32,1.36 v 12.76 c 0,1.28 0.16,1.6 1.52,1.6 h 1 c 1.36,0 1.52,-0.32 1.52,-1.6 z"
         id="path142960" />
    </g>
  </g>
</svg>
